<svg width="240" height="119" viewBox="0 0 240 119" fill="none" xmlns="http://www.w3.org/2000/svg">
<path d="M0 0H7.83301L15.4507 26.616L23.1401 0H30.7578L18.7858 35.0593H11.8572L0 0Z" fill="black"/>
<path d="M52.61 12.4163C54.8015 15.1606 55.8972 18.4021 55.8972 22.1457C55.8972 25.8892 54.8015 29.2073 52.61 31.9086C50.4184 34.6146 47.0929 35.9629 42.6381 35.9629C38.1833 35.9629 34.8529 34.6098 32.6662 31.9086C30.4747 29.2073 29.3789 25.9514 29.3789 22.1457C29.3789 18.34 30.4747 15.1606 32.6662 12.4163C34.8577 9.67196 38.1785 8.2998 42.6381 8.2998C47.0977 8.2998 50.4232 9.67196 52.61 12.4163V12.4163ZM42.6141 14.0323C40.6284 14.0323 39.102 14.7351 38.0301 16.1359C36.9583 17.5368 36.4224 19.54 36.4224 22.1409C36.4224 24.7418 36.9583 26.745 38.0301 28.1602C39.102 29.5706 40.6284 30.2782 42.6141 30.2782C44.5999 30.2782 46.1215 29.5754 47.1838 28.1602C48.2461 26.745 48.7772 24.7418 48.7772 22.1409C48.7772 19.54 48.2461 17.5368 47.1838 16.1359C46.1215 14.7303 44.5951 14.0323 42.6141 14.0323V14.0323Z" fill="black"/>
<path d="M60.8945 0H67.6796V35.0593H60.8945V0V0Z" fill="black"/>
<path d="M98.1008 35.059H89.9137L83.7028 23.9765L80.894 26.9025V35.059H74.2285V0.119141H80.894V19.0042L89.3443 9.25092H97.7467L88.6791 19.1716L98.1055 35.059H98.1008Z" fill="black"/>
<path d="M119.285 10.3221C121.318 11.6225 122.481 13.86 122.783 17.0299H115.997C115.902 16.1597 115.658 15.4665 115.261 14.9597C114.514 14.0417 113.246 13.5779 111.452 13.5779C109.978 13.5779 108.925 13.8074 108.298 14.2664C107.672 14.7254 107.361 15.2657 107.361 15.8824C107.361 16.6569 107.696 17.2211 108.361 17.5701C109.026 17.9335 111.385 18.5598 115.433 19.4491C118.132 20.0849 120.156 21.0411 121.505 22.3272C122.84 23.6277 123.505 25.2532 123.505 27.2039C123.505 29.7713 122.548 31.8702 120.639 33.4957C118.725 35.1213 115.773 35.9341 111.772 35.9341C107.772 35.9341 104.681 35.0735 102.738 33.3523C100.796 31.6311 99.8242 29.4414 99.8242 26.7736H106.705C106.849 27.9784 107.155 28.8342 107.633 29.341C108.475 30.2446 110.031 30.6941 112.299 30.6941C113.634 30.6941 114.691 30.498 115.476 30.1012C116.261 29.7044 116.653 29.1115 116.653 28.3179C116.653 27.5242 116.337 26.9792 115.701 26.5824C115.064 26.1855 112.71 25.5066 108.629 24.5361C105.691 23.8046 103.623 22.8962 102.418 21.8013C101.212 20.7256 100.609 19.1718 100.609 17.1398C100.609 14.7445 101.547 12.6887 103.432 10.9675C105.313 9.24633 107.959 8.38574 111.37 8.38574C114.782 8.38574 117.251 9.0264 119.299 10.3125L119.285 10.3221Z" fill="black"/>
<path d="M142.616 35.7479C140.472 35.7479 138.75 35.3176 137.448 34.4618C136.673 33.955 135.831 33.0657 134.927 31.7987V35.0594H128.285V0.0478516H135.046V12.512C135.903 11.3072 136.845 10.3892 137.879 9.75336C139.099 8.9597 140.654 8.56288 142.544 8.56288C145.956 8.56288 148.626 9.7916 150.554 12.2491C152.483 14.7065 153.445 17.8763 153.445 21.7633C153.445 25.6503 152.492 29.1309 150.588 31.7748C148.684 34.4235 146.023 35.7479 142.611 35.7479H142.616ZM146.329 22.4757C146.329 20.635 146.09 19.1146 145.616 17.9098C144.712 15.6245 143.047 14.4866 140.616 14.4866C138.185 14.4866 136.467 15.6053 135.544 17.8381C135.065 19.0286 134.831 20.5681 134.831 22.4518C134.831 24.6702 135.324 26.5109 136.305 27.9691C137.29 29.4273 138.788 30.1588 140.803 30.1588C142.549 30.1588 143.903 29.4512 144.875 28.0408C145.841 26.6304 146.325 24.7754 146.325 22.4757H146.329Z" fill="black"/>
<path d="M159.278 11.9379C161.072 9.65253 164.149 8.51465 168.513 8.51465C171.355 8.51465 173.877 9.07881 176.083 10.2024C178.289 11.3259 179.394 13.4535 179.394 16.5755V28.4707C179.394 29.293 179.408 30.2923 179.442 31.4684C179.49 32.3577 179.624 32.9601 179.849 33.2756C180.069 33.5912 180.404 33.8541 180.849 34.0597V35.059H173.47C173.265 34.5378 173.121 34.0454 173.04 33.5864C172.958 33.1274 172.896 32.6015 172.848 32.0182C171.91 33.0318 170.834 33.8972 169.609 34.6095C168.149 35.451 166.499 35.8717 164.656 35.8717C162.307 35.8717 160.369 35.2024 158.838 33.8637C157.307 32.525 156.541 30.6269 156.541 28.1695C156.541 24.9805 157.771 22.6761 160.23 21.2465C161.58 20.472 163.561 19.9126 166.183 19.5827L168.494 19.2959C169.748 19.1381 170.642 18.9373 171.183 18.703C172.15 18.2919 172.638 17.6464 172.638 16.7763C172.638 15.7149 172.269 14.9786 171.532 14.577C170.795 14.1754 169.709 13.9698 168.283 13.9698C166.68 13.9698 165.546 14.3666 164.881 15.1603C164.408 15.7484 164.087 16.5372 163.929 17.5365H157.383C157.527 15.2703 158.158 13.4056 159.288 11.9474L159.278 11.9379ZM164.326 30.1584C164.963 30.6795 165.738 30.9425 166.661 30.9425C168.121 30.9425 169.465 30.5122 170.695 29.6564C171.925 28.8006 172.566 27.2372 172.609 24.971V22.4514C172.178 22.7191 171.748 22.939 171.312 23.1064C170.877 23.2737 170.279 23.4267 169.513 23.5701L167.991 23.857C166.561 24.1104 165.542 24.4212 164.92 24.7845C163.872 25.4013 163.35 26.3623 163.35 27.6627C163.35 28.8197 163.675 29.6516 164.326 30.1584V30.1584Z" fill="black"/>
<path d="M197.628 14.1515C195.327 14.1515 193.748 15.1268 192.891 17.0775C192.446 18.1102 192.226 19.425 192.226 21.0266V35.059H185.465V9.17921H192.011V12.961C192.882 11.6271 193.709 10.6709 194.485 10.0828C195.882 9.03578 197.652 8.51465 199.791 8.51465C202.471 8.51465 204.667 9.21746 206.375 10.6183C208.079 12.0239 208.935 14.3475 208.935 17.5986V35.059H201.983V19.2911C201.983 17.9285 201.801 16.8815 201.437 16.15C200.772 14.8161 199.499 14.1515 197.628 14.1515V14.1515Z" fill="black"/>
<path d="M238.999 35.059H230.812L224.601 23.9765L221.792 26.9025V35.059H215.127V0.119141H221.792V19.0042L230.243 9.25092H238.645L229.578 19.1716L239.004 35.059H238.999Z" fill="black"/>
<path d="M65.1099 74.4451H49.9941V39.3857H65.1099C67.2823 39.4192 69.091 39.6726 70.536 40.1459C72.9955 40.9539 74.9861 42.436 76.5125 44.5923C77.7326 46.3374 78.5652 48.2259 79.0102 50.253C79.4552 52.285 79.6753 54.2165 79.6753 56.0572C79.6753 60.7187 78.7375 64.6679 76.8666 67.9046C74.3257 72.2649 70.4068 74.4451 65.1051 74.4451H65.1099ZM70.56 48.3311C69.4307 46.4282 67.2057 45.4768 63.8706 45.4768H57.1094V68.3588H63.8706C67.3301 68.3588 69.7417 66.652 71.1055 63.2431C71.8519 61.3737 72.2251 59.1458 72.2251 56.5592C72.2251 52.9926 71.6701 50.2483 70.56 48.3311V48.3311Z" fill="black"/>
<path d="M91.6288 39.1709V45.4245H84.748V39.1709H91.6288ZM91.6288 48.5178V74.4454H84.748V48.5178H91.6288V48.5178Z" fill="black"/>
<path d="M105.533 78.9877C106.265 79.6044 107.495 79.9152 109.223 79.9152C111.668 79.9152 113.299 79.0976 114.127 77.4673C114.668 76.4203 114.936 74.6608 114.936 72.189V70.5252C114.285 71.6344 113.586 72.4663 112.84 73.0209C111.491 74.0536 109.739 74.5652 107.581 74.5652C104.251 74.5652 101.586 73.3939 99.5952 71.0559C97.6047 68.718 96.6094 65.5482 96.6094 61.5512C96.6094 57.5543 97.5712 54.4609 99.4899 51.8362C101.409 49.2114 104.131 47.9014 107.653 47.9014C108.955 47.9014 110.089 48.1022 111.055 48.4942C112.706 49.1779 114.036 50.4305 115.055 52.2521V48.5181H121.649V73.1118C121.649 76.4585 121.085 78.9781 119.96 80.6754C118.022 83.5918 114.309 85.05 108.821 85.05C105.505 85.05 102.796 84.3998 100.705 83.0994C98.6143 81.7989 97.4515 79.8578 97.2314 77.2713H104.61C104.801 78.0649 105.107 78.6339 105.538 78.9829L105.533 78.9877ZM104.39 65.596C105.308 67.7857 106.959 68.8806 109.342 68.8806C110.931 68.8806 112.271 68.2829 113.366 67.0829C114.462 65.8876 115.008 63.98 115.008 61.3648C115.008 58.9073 114.486 57.0379 113.448 55.7518C112.409 54.4657 111.017 53.8251 109.27 53.8251C106.892 53.8251 105.246 54.9438 104.342 57.1766C103.863 58.3671 103.629 59.8348 103.629 61.5751C103.629 63.0812 103.883 64.4198 104.39 65.596Z" fill="black"/>
<path d="M134.957 39.1709V45.4245H128.076V39.1709H134.957ZM134.957 48.5178V74.4454H128.076V48.5178H134.957V48.5178Z" fill="black"/>
<path d="M153.402 69.617V74.6849L150.186 74.8044C146.98 74.9144 144.789 74.3598 143.617 73.1406C142.856 72.3661 142.473 71.1661 142.473 69.5501V53.591H138.855V48.7621H142.473V41.5332H149.186V48.7621H153.402V53.591H149.186V67.2934C149.186 68.3548 149.32 69.0194 149.593 69.2776C149.861 69.5405 150.689 69.6696 152.067 69.6696C152.273 69.6696 152.493 69.6696 152.722 69.66C152.952 69.6505 153.177 69.6409 153.402 69.6266V69.617Z" fill="black"/>
<path d="M158.737 51.3246C160.531 49.0393 163.608 47.9014 167.972 47.9014C170.814 47.9014 173.336 48.4655 175.542 49.5891C177.748 50.7126 178.853 52.8402 178.853 55.9622V67.8574C178.853 68.6797 178.867 69.679 178.901 70.8551C178.949 71.7444 179.083 72.3468 179.308 72.6624C179.528 72.9779 179.863 73.2409 180.308 73.4464V74.4457H172.929C172.723 73.9246 172.58 73.4321 172.499 72.9731C172.417 72.5141 172.355 71.9882 172.307 71.4049C171.369 72.4185 170.293 73.2839 169.068 73.9963C167.608 74.8377 165.958 75.2585 164.115 75.2585C161.766 75.2585 159.828 74.5891 158.297 73.2504C156.766 71.9117 156 70.0137 156 67.5562C156 64.3673 157.23 62.0628 159.689 60.6333C161.039 59.8587 163.02 59.2994 165.642 58.9695L167.953 58.6826C169.207 58.5248 170.101 58.324 170.642 58.0898C171.609 57.6786 172.092 57.0331 172.092 56.163C172.092 55.1016 171.723 54.3653 170.987 53.9637C170.25 53.5573 169.163 53.3565 167.738 53.3565C166.135 53.3565 165.001 53.7534 164.335 54.547C163.857 55.1351 163.541 55.9239 163.383 56.9232H156.837C156.981 54.657 157.613 52.7924 158.742 51.3342L158.737 51.3246ZM163.785 69.5451C164.422 70.0663 165.197 70.3292 166.12 70.3292C167.58 70.3292 168.924 69.8989 170.154 69.0431C171.384 68.1873 172.025 66.6239 172.068 64.3577V61.8381C171.637 62.1058 171.207 62.3258 170.771 62.4931C170.336 62.6604 169.738 62.8134 168.972 62.9568L167.45 63.2437C166.025 63.4971 165.001 63.8079 164.378 64.1712C163.331 64.788 162.809 65.749 162.809 67.0494C162.809 68.2064 163.134 69.0383 163.785 69.5451V69.5451Z" fill="black"/>
<path d="M185.016 39.3857H191.801V74.4451H185.016V39.3857Z" fill="black"/>
<path d="M32.3888 100.239C30.3264 99.2444 28.1684 98.7042 25.9769 98.2022C24.2495 97.8053 22.503 97.4994 20.7804 97.0738C19.4071 96.7344 18.3544 95.8642 18.2013 94.4299C18.0625 93.1199 18.7229 92.0299 19.9143 91.3414C22.2829 89.9788 25.9099 90.5477 27.5272 92.7327C28.1541 93.5789 28.7618 93.7988 29.7235 93.8275C31.9103 93.8897 34.1114 93.5024 36.2837 94.057C36.3459 94.0714 36.6235 93.7032 36.59 93.5646C36.011 91.2697 34.9344 89.1995 33.14 87.6648C30.8911 85.7428 28.178 84.7866 25.2352 84.385C23.4983 84.1507 21.8235 84.3515 20.1201 84.5667C18.2013 84.8057 16.45 85.3507 14.7226 86.3261C11.8995 87.9182 10.464 91.2505 10.3444 91.6426C9.80368 93.3781 9.73669 95.1375 10.1913 96.9017C10.3157 97.3798 10.7128 98.7185 10.9473 99.1249C11.7607 100.54 12.7895 101.673 14.2585 102.505C16.206 103.61 18.3066 104.107 20.4455 104.58C22.5221 105.039 24.5988 105.517 26.6611 106.024C27.8574 106.32 28.7091 107.076 28.8862 108.314C29.0632 109.586 28.5034 110.595 27.4411 111.36C26.7377 111.866 25.9865 112.067 25.1395 112.206C22.2638 112.679 19.8665 111.972 18.1248 109.552C17.7994 109.098 17.4549 108.945 16.9381 108.95C14.3207 108.96 11.6985 108.955 8.89453 108.955C9.66013 113.1 11.9665 115.792 15.5504 117.422C18.8903 118.938 22.4552 119.186 26.0295 118.851C28.0871 118.66 30.1303 118.067 31.9294 117.006C34.6568 115.395 36.4034 113.138 36.9488 109.834C37.5565 106.172 35.7717 101.879 32.384 100.244L32.3888 100.239Z" fill="url(#paint0_linear_1960_32148)"/>
<path d="M62.448 95.2427C59.4334 93.1247 56.0218 92.5271 52.4426 92.8713C50.2989 93.0769 48.251 93.7893 46.471 95.0084C45.0929 95.9503 43.6765 96.8683 42.7961 98.4364C41.4946 100.765 40.4562 103.112 40.7912 106.024C40.4993 107.21 40.6811 108.529 41.1548 109.806C41.9444 111.943 42.9205 114.004 44.7388 115.462C46.7437 117.068 48.9639 118.216 51.5813 118.679C55.1413 119.315 58.4525 118.756 61.558 117.063C63.5055 116.002 65.1132 114.477 66.1946 112.483C67.7784 109.571 68.3526 106.54 67.6493 103.227C66.9315 99.8516 65.2424 97.2077 62.4432 95.2427H62.448ZM56.7874 111.823C52.5096 113.788 48.6768 110.255 48.1935 107.229C47.8873 105.307 48.2079 103.648 49.1553 101.989C49.9975 100.511 51.3612 99.7417 52.835 99.3496C54.2992 98.9624 55.9117 98.9002 57.1462 100.191C59.6823 101.214 60.1608 103.461 60.5675 105.704C60.2852 108.434 59.3569 110.642 56.7874 111.823Z" fill="url(#paint1_linear_1960_32148)"/>
<path d="M110.972 94.2291C110.996 93.6889 110.728 93.5072 110.212 93.5072C108.422 93.5215 106.628 93.5072 104.838 93.5072C103.082 93.512 103.202 93.3016 103.197 95.128C103.197 95.4244 103.197 95.7256 103.197 96.022C103.187 99.364 103.23 102.706 103.149 106.048C103.101 107.932 102.522 109.648 100.996 110.944C99.5076 112.206 96.5027 112.478 95.0241 110.781C93.9858 109.591 93.4498 108.295 93.4451 106.746C93.4355 103.763 93.4355 100.779 93.4307 97.7958C93.4307 96.6627 93.4164 95.5296 93.4307 94.3965C93.4403 93.8419 93.3159 93.4929 92.6508 93.5024C90.6794 93.5263 88.7079 93.5263 86.7365 93.5024C86.0953 93.4929 85.8992 93.7893 85.9231 94.3726C85.947 94.9702 85.9231 95.5678 85.9231 96.1607C85.9231 100.875 85.8178 105.594 85.9757 110.303C86.0762 113.21 87.3442 115.667 89.8611 117.36C92.2871 118.985 94.9523 119.205 97.7276 118.746C99.7182 118.416 101.355 117.336 103.178 115.94C103.178 116.681 103.178 117.092 103.178 117.498C103.178 117.905 103.293 118.196 103.766 118.192C105.977 118.192 108.188 118.192 110.393 118.192C110.862 118.192 110.996 117.91 110.992 117.498C110.992 117.202 110.992 116.901 110.992 116.604C110.987 109.442 110.977 102.285 110.972 95.1232C110.972 94.8268 110.958 94.5256 110.972 94.2291Z" fill="url(#paint2_linear_1960_32148)"/>
<path d="M178.637 103.031C177.402 98.1639 174.378 94.9128 169.564 93.4211C166.593 92.4984 163.593 92.5749 160.645 93.555C157.999 94.4395 155.707 95.8786 154.061 98.1926C151.645 101.597 151.008 105.302 152.094 109.342C152.941 112.474 154.678 114.941 157.42 116.638C161.081 118.909 165.014 119.468 169.215 118.364C171.713 117.709 173.885 116.49 175.589 114.644C177.833 112.215 179.072 109.289 178.819 105.871C178.766 104.92 178.866 103.93 178.637 103.026V103.031ZM169.99 110.102C166.966 113.97 161.516 112.574 159.875 109.151C159.353 108.07 158.918 106.971 159.028 105.9C159.066 101.864 162.114 98.948 165.713 99.1775C168.32 99.3448 170.335 101.128 171.158 103.418C172.014 105.794 171.579 108.075 169.995 110.107L169.99 110.102Z" fill="url(#paint3_linear_1960_32148)"/>
<path d="M208.481 103.256C208.471 102.142 208.356 100.999 208.093 99.9186C207.399 97.0691 205.835 94.7216 203.083 93.6076C199.255 92.0538 195.528 92.4649 192.169 95.0563C191.982 95.1997 191.824 95.3909 191.623 95.5152C191.283 95.7208 191.063 95.563 190.992 95.2092C190.949 94.9798 190.977 94.7311 190.958 94.4969C190.872 93.5693 190.867 93.5454 189.901 93.5359C188.231 93.5168 186.556 93.5359 184.886 93.5311C183.508 93.5263 183.479 93.4546 183.484 94.8698C183.494 98.5082 183.484 102.147 183.484 105.785H183.465C183.465 109.543 183.46 113.301 183.465 117.059C183.465 118.153 183.494 118.177 184.522 118.187C186.312 118.206 188.106 118.206 189.896 118.187C190.944 118.177 190.968 118.153 190.972 117.068C190.982 113.726 190.915 110.384 190.996 107.047C191.03 105.766 191.398 104.494 191.604 103.217C191.81 101.941 192.647 101.061 193.604 100.358C195.733 98.7998 199.203 99.5026 200.207 101.817C200.815 103.208 200.987 104.671 201.007 106.139C201.059 109.777 201.007 113.415 201.021 117.054C201.021 118.144 201.05 118.168 202.088 118.177C203.82 118.196 205.552 118.177 207.28 118.182C208.572 118.192 208.505 118.144 208.505 116.853C208.495 112.321 208.519 107.783 208.476 103.251L208.481 103.256Z" fill="url(#paint4_linear_1960_32148)"/>
<path d="M230.716 103.978C229.267 103.485 227.745 103.217 226.252 102.854C224.821 102.51 223.357 102.261 221.96 101.802C220.922 101.463 220.601 100.789 220.702 99.8994C220.797 99.1058 221.625 98.2165 222.482 98.1448C223.85 98.0301 225.286 97.8866 226.424 98.8428C227.247 99.5361 228.137 99.5504 229.094 99.5409C230.587 99.5265 232.08 99.5409 233.573 99.5313C234.013 99.5313 234.454 99.4787 234.884 99.45C234.578 97.7241 233.573 96.5097 232.429 95.4913C231.094 94.3008 229.439 93.6219 227.688 93.163C226.042 92.7327 224.381 92.7805 222.721 92.8187C219.759 92.8857 217.175 93.8323 215.098 96.0746C213.256 98.0587 212.892 100.368 213.462 102.849C213.998 105.197 215.706 106.645 217.883 107.367C219.893 108.037 222.013 108.367 224.075 108.864C225.046 109.098 226.08 109.237 226.96 109.672C228.372 110.37 228.338 111.972 226.984 112.794C226.683 112.976 226.329 113.186 225.998 113.186C224.936 113.186 223.807 113.296 222.831 112.976C221.237 112.454 219.687 111.948 217.988 112.134C217.811 112.153 217.62 112.144 217.457 112.091C215.883 111.594 214.285 111.924 212.557 111.842C213.309 115.199 215.61 117.255 218.548 118.144C221.089 118.914 223.706 119.105 226.309 118.823C228.056 118.632 229.807 118.192 231.401 117.341C234.875 115.49 236.176 111.517 234.999 108.218C234.262 106.148 232.798 104.676 230.716 103.968V103.978Z" fill="url(#paint5_linear_1960_32148)"/>
<path d="M133.548 111.226C132.428 111.532 131.524 111.814 130.6 112.019C128.706 112.445 127.337 111.651 126.758 109.782C126.586 109.222 126.447 108.63 126.442 108.046C126.404 105.603 126.409 103.155 126.423 100.712C126.428 99.5743 126.457 99.5552 127.662 99.5409C129.452 99.5217 131.242 99.5074 133.031 99.5504C133.763 99.5696 133.95 99.2779 133.936 98.6038C133.902 97.2316 133.936 95.8595 133.916 94.4873C133.902 93.5502 133.878 93.5263 132.878 93.5168C131.088 93.4976 129.299 93.5263 127.505 93.5024C126.452 93.4881 126.423 93.4642 126.409 92.3693C126.385 90.5812 126.385 88.7931 126.404 87.0002C126.409 86.3787 126.318 85.9962 125.538 86.0153C123.629 86.0631 121.719 86.0583 119.81 86.0153C119.064 86.001 118.906 86.3309 118.915 86.9811C118.939 88.6497 118.935 90.3182 118.915 91.9916C118.896 93.3494 118.743 93.4833 117.341 93.5072C116.566 93.5215 115.791 93.5263 115.016 93.5072C114.485 93.4976 114.274 93.7367 114.279 94.2578C114.288 95.7495 114.298 97.2412 114.264 98.7281C114.25 99.3687 114.532 99.5552 115.121 99.5361C116.073 99.5122 117.03 99.5504 117.987 99.5265C118.681 99.5074 118.959 99.8229 118.915 100.497C118.892 100.913 118.911 101.334 118.911 101.75C118.911 104.79 118.801 107.836 118.959 110.872C119.126 114.204 120.7 116.839 123.873 118.106C127.332 119.487 130.854 119.2 134.256 117.704C135.318 117.235 135.342 117.188 135.007 115.988C134.567 114.4 134.05 112.832 133.558 111.226H133.548Z" fill="url(#paint6_linear_1960_32148)"/>
<path d="M80.1141 84.4615C80.1141 84.0455 80.095 83.6248 80.1141 83.2088C80.1428 82.6877 79.9419 82.4582 79.3964 82.463C77.3101 82.4773 75.2191 82.4869 73.1328 82.4582C72.4773 82.4487 72.305 82.7499 72.3433 83.3236C72.3625 83.62 72.3433 83.9212 72.3433 84.2176C72.329 92.9191 72.3194 101.625 72.305 110.327C72.305 112.65 72.3146 114.979 72.305 117.302C72.305 117.843 72.3816 118.216 73.0658 118.211C75.2143 118.187 77.3628 118.196 79.5112 118.201C79.9706 118.201 80.1428 117.967 80.138 117.541C80.1333 117.126 80.138 116.705 80.138 116.289C80.138 110.987 80.138 105.68 80.138 100.378H80.1141C80.1141 95.0706 80.1141 89.7684 80.1141 84.4615Z" fill="url(#paint7_linear_1960_32148)"/>
<path d="M146.812 95.0228C146.812 94.7837 146.793 94.5447 146.812 94.3056C146.865 93.6602 146.534 93.4976 145.951 93.5072C143.979 93.5263 142.013 93.5024 140.041 93.5168C139.075 93.5263 139.041 93.5502 139.041 94.5208C139.027 98.2787 139.036 102.032 139.036 105.79H139.022C139.022 108.175 139.022 110.561 139.022 112.947C139.022 114.439 139.032 115.93 139.017 117.417C139.012 117.919 139.17 118.192 139.721 118.192C141.869 118.177 144.017 118.187 146.166 118.187C146.592 118.187 146.841 118.024 146.826 117.561C146.817 117.264 146.826 116.963 146.826 116.667C146.821 109.452 146.817 102.237 146.812 95.0228Z" fill="url(#paint8_linear_1960_32148)"/>
<path d="M142.931 81.6885C140.228 81.6885 138.663 83.1897 138.649 85.7906C138.496 88.5588 140.386 90.0649 143.084 90.1892C145.238 90.2896 147.195 88.205 147.214 85.9675C147.243 83.2184 145.707 81.6885 142.926 81.6885H142.931Z" fill="url(#paint9_linear_1960_32148)"/>
<defs>
<linearGradient id="paint0_linear_1960_32148" x1="147.5" y1="124.5" x2="150.567" y2="85.9879" gradientUnits="userSpaceOnUse">
<stop stop-color="#2673CE"/>
<stop offset="1" stop-color="#28B4CE"/>
</linearGradient>
<linearGradient id="paint1_linear_1960_32148" x1="147.5" y1="124.5" x2="150.567" y2="85.9879" gradientUnits="userSpaceOnUse">
<stop stop-color="#2673CE"/>
<stop offset="1" stop-color="#28B4CE"/>
</linearGradient>
<linearGradient id="paint2_linear_1960_32148" x1="147.5" y1="124.5" x2="150.567" y2="85.9879" gradientUnits="userSpaceOnUse">
<stop stop-color="#2673CE"/>
<stop offset="1" stop-color="#28B4CE"/>
</linearGradient>
<linearGradient id="paint3_linear_1960_32148" x1="147.5" y1="124.5" x2="150.567" y2="85.9879" gradientUnits="userSpaceOnUse">
<stop stop-color="#2673CE"/>
<stop offset="1" stop-color="#28B4CE"/>
</linearGradient>
<linearGradient id="paint4_linear_1960_32148" x1="147.5" y1="124.5" x2="150.567" y2="85.9879" gradientUnits="userSpaceOnUse">
<stop stop-color="#2673CE"/>
<stop offset="1" stop-color="#28B4CE"/>
</linearGradient>
<linearGradient id="paint5_linear_1960_32148" x1="147.5" y1="124.5" x2="150.567" y2="85.9879" gradientUnits="userSpaceOnUse">
<stop stop-color="#2673CE"/>
<stop offset="1" stop-color="#28B4CE"/>
</linearGradient>
<linearGradient id="paint6_linear_1960_32148" x1="147.5" y1="124.5" x2="150.567" y2="85.9879" gradientUnits="userSpaceOnUse">
<stop stop-color="#2673CE"/>
<stop offset="1" stop-color="#28B4CE"/>
</linearGradient>
<linearGradient id="paint7_linear_1960_32148" x1="147.5" y1="124.5" x2="150.567" y2="85.9879" gradientUnits="userSpaceOnUse">
<stop stop-color="#2673CE"/>
<stop offset="1" stop-color="#28B4CE"/>
</linearGradient>
<linearGradient id="paint8_linear_1960_32148" x1="147.5" y1="124.5" x2="150.567" y2="85.9879" gradientUnits="userSpaceOnUse">
<stop stop-color="#2673CE"/>
<stop offset="1" stop-color="#28B4CE"/>
</linearGradient>
<linearGradient id="paint9_linear_1960_32148" x1="147.5" y1="124.5" x2="150.567" y2="85.9879" gradientUnits="userSpaceOnUse">
<stop stop-color="#2673CE"/>
<stop offset="1" stop-color="#28B4CE"/>
</linearGradient>
</defs>
</svg>
